<svg data-v-0dd9719b="" version="1.0" xmlns="http://www.w3.org/2000/svg" xmlns:xlink="http://www.w3.org/1999/xlink" width="100%" height="100%" viewBox="0 0 340.000000 250.000000" preserveAspectRatio="xMidYMid meet" color-interpolation-filters="sRGB" style="margin: auto;"> <rect data-v-0dd9719b="" x="0" y="0" width="100%" height="100%" fill="#fff" fill-opacity="1" class="background"></rect> <rect data-v-0dd9719b="" x="0" y="0" width="100%" height="100%" fill="url(#watermark)" fill-opacity="1" class="watermarklayer"></rect> <g data-v-0dd9719b="" fill="#231815" class="icon-text-wrapper icon-svg-group iconsvg" transform="translate(53.69999694824219,91.38843536376953)"><g class="iconsvg-imagesvg" transform="translate(0,0)"><g><rect fill="#231815" fill-opacity="0" stroke-width="2" x="0" y="0" width="60.00000000000001" height="67.2231247549157" class="image-rect"></rect> <svg x="0" y="0" width="60.00000000000001" height="67.2231247549157" filtersec="colorsb7828504155" class="image-svg-svg primary" style="overflow: visible;"><svg xmlns="http://www.w3.org/2000/svg" viewBox="0.011853734031319618 0 23.80814552307129 26.67420196533203"><g><g><g fill-rule="evenodd"><path d="M19.93 17.65A8.81 8.81 0 1 1 5.54 8.72a9.27 9.27 0 0 1 5.34-2.09 14.1 14.1 0 0 1 5.52.59c1.28.42 2.54.92 4 1.45l-2.48 2c-.71-2.45-4.27-3.31-7.14-3a7.41 7.41 0 0 0-4.11 1.79 7.5 7.5 0 1 0 11.89 8.18z" fill="#231815"></path><path d="M22.67 17.65a11.46 11.46 0 1 1-19-10.83c2.74-2.54 6.15-3 9.79-2.67s6.82.82 10.36-.09L21.71 7c-2.31-.26-4.78-.94-7.18-1.39a14.52 14.52 0 0 0-5.18-.15 9.35 9.35 0 0 0-4.83 2.37 10 10 0 0 0-3.21 7.39 10.15 10.15 0 0 0 20 2.42z" fill="#231815"></path><path d="M1.65.31l1-.31c4.11 2.09 9.78 2.47 13.83 2l1.22 1.54A29.55 29.55 0 0 1 1.65.31z" fill="#bd1e24"></path></g></g></g></svg></svg> <!----></g></g> <g transform="translate(67,9.800315856933594)"><g data-gra="path-name" fill-rule="" class="tp-name iconsvg-namesvg" transform="translate(0,0)"><g transform="scale(1)"><g><path d="M41.17 0.14L34.65 0.14 32.31-5.58 28.93 0.09 22.45 0.09 29.65-12.46 24.88-25.29 10.13-25.29 10.13-21.55 22.54-21.55 22.54-4.86Q22.54-3.73 22.18-2.92L22.18-2.92Q21.69-1.93 21.11-1.35L21.11-1.35Q20.38-0.67 19.53-0.27L19.53-0.27Q18.59 0.09 17.59 0.09L17.59 0.09 12.73 0.09 14.45-4.37 15.43-4.37Q16.06-4.37 16.52-4.81L16.52-4.81Q16.88-5.17 16.88-5.76L16.88-5.76 16.88-17.1 10.13-17.1 10.13-4.46 8.28 0.14 2.65 0.14 4.5-4.46 4.5-29.79 23.18-29.79 22.14-32.53 28.17-32.53 29.29-29.79 33.84-29.79 32.67-32.49 39.2-32.49 42.34-25.29 31.05-25.29 33.52-19.04 35.82-22.99 42.34-22.99 36.18-12.33 41.17 0.14ZM45.95-22.23L54.77-22.23 54.77-26.77 46.4-26.77 46.4-31 54.77-31 54.77-32.4 60.03-32.4 60.03-31 68.4-31 68.4-26.77 60.03-26.77 60.03-22.23 61.52-22.23 63.13-25.61 68-25.61 66.38-22.23 68.89-22.23 68.89-18.13 56.66-18.13 55.35-16.2 67.41-16.2 67.41-5.04Q67.41-4 67.05-3.13 66.69-2.25 66.06-1.57 65.43-0.9 64.58-0.52 63.72-0.14 62.77-0.14L62.77-0.14 54.77-0.14 50.58-0.14 48.91-0.14 48.91-11.65 45.9-11.65 50.35-18.13 45.95-18.13 45.95-22.23ZM61.56-5.22L61.56-6.43 54.77-6.43 54.77-3.82 60.25-3.82Q60.8-3.82 61.18-4.23 61.56-4.63 61.56-5.22L61.56-5.22ZM61.56-10.13L61.56-12.51 54.77-12.51 54.77-10.13 61.56-10.13ZM74.92-32.31L85.5-32.31 82.22-18.13 85.5-18.13 80.73-1.89 75.42-1.89 79.2-14.45 75.64-14.45 78.93-27.9 74.92-27.9 74.92-0.04 69.8-0.04 69.8-32.31 72.63-32.31 74.92-32.31ZM97.2-32.35L103.37-32.35 103.37-5.26Q103.37-4.86 103.66-4.57 103.95-4.27 104.36-4.27L104.36-4.27 117.18-4.27 115.65-0.09 101.52-0.09Q99.72-0.09 98.46-1.35 97.2-2.61 97.2-4.41L97.2-4.41 97.2-32.35ZM87.3-2.11L90.27-29.02 96.3-29.02 93.38-2.11 87.3-2.11ZM111.33-31.63L115.7-7.42 109.4-7.42 105.03-31.63 111.33-31.63ZM121.09-29.02L126.9-0.77 120.6-0.77 114.8-29.02 121.09-29.02ZM130.64-27.54L130.64-30.64 144.77-30.64 143.96-32.45 151.29-32.45 152.06-30.64 166.37-30.64 166.37-27.54 130.64-27.54ZM168.25-25.06L168.25-21.96 128.75-21.96 128.75-25.06 134.96-25.06 134.46-26.64 141.8-26.64 142.25-25.06 154.75-25.06 155.21-26.64 162.54-26.64 162.05-25.06 168.25-25.06ZM165.56-13.14L165.56-12.78Q165.47-11.83 165.06-10.98 164.66-10.13 163.98-9.52 163.31-8.91 162.45-8.55 161.6-8.19 160.61-8.19L160.61-8.19 131.45-8.19 131.45-9.9 131.45-11.25 131.45-12.78 131.45-15.84 131.45-17.41 131.45-20.38 131.45-20.47 165.56-20.47 165.56-20.38 165.56-17.41 165.56-15.84 165.56-13.14ZM137.56-17.41L137.56-15.84 159.44-15.84 159.44-17.41 137.56-17.41ZM137.56-11.25L158-11.25Q158.63-11.25 159.03-11.65 159.44-12.06 159.44-12.69L159.44-12.69 159.44-12.78 137.56-12.78 137.56-11.25ZM128.7 0L130.19-6.39 136.22-6.39 134.78 0 128.7 0ZM166.81-6.39L168.25 0 162.36 0 160.88-6.39 166.81-6.39ZM155.16-7.2L156.51-3.96 150.17-3.96 148.81-7.2 155.16-7.2ZM138.83-7.2L145.44-7.2 145.44-3.6Q145.44-3.15 145.69-3.08 145.94-3.01 146.12-3.01L146.12-3.01 159.53-3.01 158.27 0 141.71 0Q140.94 0 140.4-0.25 139.86-0.49 139.5-0.9 139.14-1.3 138.98-1.75 138.83-2.21 138.83-2.61L138.83-2.61 138.83-7.2Z" transform="translate(-2.6500000953674316, 32.529998779296875)"></path></g> <!----> <!----> <!----> <!----> <!----> <!----> <!----></g></g> <g data-gra="path-slogan" fill-rule="" class="tp-slogan iconsvg-slogansvg" fill="#231815" transform="translate(5,38.66999816894531)"><rect x="0" height="1" y="3.9750003814697266" width="23.03000259399414"></rect> <rect height="1" y="3.9750003814697266" width="23.03000259399414" x="132.57000350952148"></rect> <g transform="translate(26.03000259399414,0)"><g transform="scale(1)"><path d="M8.06-6.05L8.06-6.05L6.94-6.05Q6.52-7.78 4.55-7.83L4.55-7.83Q1.83-7.69 1.73-4.36L1.73-4.36Q1.73-0.80 4.59-0.80L4.59-0.80Q6.56-0.84 7.03-3.19L7.03-3.19L8.16-3.19Q7.64 0.05 4.36 0.14L4.36 0.14Q0.61 0 0.52-4.31L0.52-4.31Q0.70-8.63 4.55-8.81L4.55-8.81Q7.59-8.72 8.06-6.05ZM10.69-5.06L15.19-5.06L15.19-8.58L16.36-8.58L16.36 0L15.19 0L15.19-3.98L10.69-3.98L10.69 0L9.52 0L9.52-8.58L10.69-8.58L10.69-5.06ZM19.45-1.03L24.61-1.03L24.61 0L18.28 0L18.28-8.58L24.52-8.58L24.52-7.59L19.45-7.59L19.45-4.92L24.14-4.92L24.14-3.89L19.45-3.89L19.45-1.03ZM27.52-8.58L31.83-1.64L31.83-8.58L32.95-8.58L32.95 0L31.64 0L27.28-6.94L27.23-6.94L27.23 0L26.11 0L26.11-8.58L27.52-8.58ZM41.16-3.61L38.53-3.61L38.53-4.59L42.28-4.59L42.28 0L41.53 0L41.25-1.08Q40.27 0.09 38.44 0.14L38.44 0.14Q36.70 0.14 35.77-0.75L35.77-0.75Q34.36-2.06 34.41-4.36L34.41-4.36Q34.73-8.63 38.48-8.81L38.48-8.81Q41.67-8.63 42.14-6L42.14-6L41.02-6Q40.55-7.78 38.44-7.83L38.44-7.83Q35.77-7.64 35.63-4.31L35.63-4.31Q35.63-0.75 38.48-0.75L38.48-0.75Q39.52-0.75 40.27-1.31L40.27-1.31Q41.20-2.06 41.16-3.61L41.16-3.61ZM47.58 0L44.11 0L44.11-8.58L47.63-8.58Q51.09-8.39 51.23-4.41L51.23-4.41Q51.05-0.09 47.58 0L47.58 0ZM47.44-7.64L45.28-7.64L45.28-0.98L47.53-0.98Q49.97-1.13 50.06-4.31L50.06-4.31Q50.02-7.55 47.44-7.64L47.44-7.64ZM58.36-3.19L58.36-8.58L59.53-8.58L59.53-3.05Q59.39 0.05 56.02 0.14L56.02 0.14Q52.88 0.05 52.73-2.86L52.73-2.86L52.73-8.58L53.91-8.58L53.91-3.19Q53.95-0.84 56.06-0.80L56.06-0.80Q58.36-0.84 58.36-3.19L58.36-3.19ZM65.81-5.06L70.31-5.06L70.31-8.58L71.48-8.58L71.48 0L70.31 0L70.31-3.98L65.81-3.98L65.81 0L64.64 0L64.64-8.58L65.81-8.58L65.81-5.06ZM74.58-1.03L79.73-1.03L79.73 0L73.41 0L73.41-8.58L79.64-8.58L79.64-7.59L74.58-7.59L74.58-4.92L79.27-4.92L79.27-3.89L74.58-3.89L74.58-1.03ZM86.91 0L86.06-2.48L82.59-2.48L81.70 0L80.53 0L83.77-8.58L85.08-8.58L88.17 0L86.91 0ZM84.33-7.31L82.97-3.52L85.64-3.52L84.38-7.31L84.33-7.31ZM93.33-3.70L90.52-3.70L90.52 0L89.34 0L89.34-8.58L93.33-8.58Q96.19-8.58 96.19-6.28L96.19-6.28Q96.19-4.88 94.97-4.22L94.97-4.22Q96-3.94 96-2.58L96-2.58L96.09-1.03Q96.05-0.38 96.52-0.19L96.52-0.19L96.52 0L95.06 0Q94.92-0.61 94.88-2.16L94.88-2.16Q94.92-3.70 93.33-3.70L93.33-3.70ZM93.42-7.64L90.52-7.64L90.52-4.69L93.23-4.69Q94.97-4.69 94.97-6.19L94.97-6.19Q94.97-7.64 93.42-7.64L93.42-7.64ZM100.03-7.59L97.13-7.59L97.13-8.58L104.06-8.58L104.06-7.59L101.16-7.59L101.16 0L100.03 0L100.03-7.59Z" transform="translate(-0.515625, 8.8125)"></path></g></g></g></g></g><defs v-gra="od"></defs></svg>